<svg width="22" height="22" viewBox="0 0 22 22" fill="none" xmlns="http://www.w3.org/2000/svg">
<path d="M9.36667 15.9L17.5917 7.675L15.9583 6.04167L9.36667 12.6333L6.04167 9.30833L4.40833 10.9417L9.36667 15.9ZM2.83333 21.5C2.19167 21.5 1.64256 21.2717 1.186 20.8152C0.729444 20.3586 0.500778 19.8091 0.5 19.1667V2.83333C0.5 2.19167 0.728667 1.64256 1.186 1.186C1.64333 0.729444 2.19244 0.500778 2.83333 0.5H19.1667C19.8083 0.5 20.3578 0.728667 20.8152 1.186C21.2725 1.64333 21.5008 2.19244 21.5 2.83333V19.1667C21.5 19.8083 21.2717 20.3578 20.8152 20.8152C20.3586 21.2725 19.8091 21.5008 19.1667 21.5H2.83333Z" fill="#BA5112"/>
</svg>
